PathFileType	4	(X/Y/Z)	C:\Users\WrightLab\Desktop\Jo\P1_boxCal34.trc
DataRate	CameraRate	NumFrames	NumMarkers	Units	OrigDataRate	OrigDataStartFrame	OrigNumFrames
100.00	100.00	       24	19	mm	100.00	69	       544
Frame#	Time	Headset_Front			Headset_Back			Headset_Left			Headset_Right			Left_Shoulder			Right_Shoulder			Sternum			C7			Left Elbow			Right Elbow			Left Wrist			Right Wrist			Left ASIS			Right ASIS			S2			Left Knee			Right Knee			Left Ankle			Right Ankle			
		X1	Y1	Z1	X2	Y2	Z2	X3	Y3	Z3	X4	Y4	Z4	X5	Y5	Z5	X6	Y6	Z6	X7	Y7	Z7	X8	Y8	Z8	X9	Y9	Z9	X10	Y10	Z10	X11	Y11	Z11	X12	Y12	Z12	X13	Y13	Z13	X14	Y14	Z14	X15	Y15	Z15	X16	Y16	Z16	X17	Y17	Z17	X18	Y18	Z18	X19	Y19	Z19	

69	0.680	-448.03604	1339.15625	-1014.85529							-530.08057	1386.46216	-1131.67810	-207.83437	1232.34705	-1214.87976	-589.80609	1223.33630	-1271.59961							-120.28588	915.08881	-1244.79749				-97.55244	724.05902	-1139.62134	-715.60846	718.36755	-1327.02527	-338.98456	840.07849	-1102.10022	-534.88867	839.86969	-1158.02344	-354.96201	857.15448	-1436.02295	-189.91788	406.71936	-1185.85510	-578.79150	424.98718	-1224.07849				-137.76244	168.43187	-1447.83130	
70	0.690	-452.84500	1339.87280	-1008.60065							-534.71124	1387.22961	-1125.48352	-212.27670	1233.08533	-1209.59888	-594.35083	1224.49463	-1265.50391							-124.24313	915.01147	-1237.37561				-103.64054	724.71545	-1130.18628	-721.55701	718.62189	-1315.82117	-345.14456	841.14246	-1093.53821	-541.77972	841.61102	-1149.39966	-359.20160	856.95087	-1429.28491	-195.82256	409.69052	-1168.14856	-581.61914	422.74390	-1227.14246				-145.47279	172.60060	-1430.72900	
71	0.700	-457.90216	1340.49316	-1002.30957							-539.61157	1388.15918	-1119.52820	-216.98547	1233.81653	-1204.13086	-598.55634	1225.14551	-1258.43323							-127.72816	916.02173	-1233.98804	-667.28448	962.74530	-1348.85791	-108.23110	726.82697	-1122.02686	-727.02747	720.56708	-1307.26685	-349.57193	841.19708	-1087.62598	-547.06049	842.79584	-1144.36145	-362.95334	857.09509	-1422.84729	-201.05157	412.54376	-1153.64026	-585.56317	420.40677	-1226.89221				-152.91945	177.70023	-1414.84082	
72	0.710	-462.82001	1341.18823	-996.54260							-543.93793	1388.96851	-1113.63855	-220.72281	1234.17261	-1198.15210	-602.93585	1225.76782	-1252.05945							-132.50632	915.65698	-1225.75439				-116.59629	726.74066	-1111.54504	-732.89960	720.62042	-1295.13330	-355.58026	840.08606	-1087.47351	-552.51996	846.42999	-1135.66333	-366.62048	857.63220	-1416.82788	-208.14583	416.35287	-1136.53284	-587.49811	418.39417	-1226.56140				-160.84554	181.13489	-1396.96509	
73	0.720	-467.58014	1341.46094	-990.74683							-548.49561	1388.16003	-1107.59619	-225.16005	1235.41663	-1194.37183	-607.18762	1226.49634	-1245.22742							-137.25548	915.82660	-1218.75781	-679.71411	962.76697	-1330.18408	-122.79032	727.79291	-1102.78589	-738.81653	720.76147	-1283.01721	-359.77814	841.11414	-1077.75037	-556.72723	844.46057	-1133.51917	-369.97723	857.98999	-1409.78687	-215.09167	419.29843	-1119.04114	-589.67401	420.99667	-1220.08801				-168.25780	183.67317	-1379.73279	
74	0.730	-472.39868	1341.58130	-984.83685							-553.14105	1389.06958	-1101.32141	-228.78651	1234.89575	-1185.70581	-611.22839	1227.41382	-1238.21667							-141.85561	916.06030	-1211.73254	-685.84399	963.64490	-1322.54614	-128.48578	728.63428	-1095.88440	-744.13495	723.17212	-1274.40369	-363.31534	842.76892	-1067.93384	-563.24786	845.18152	-1127.46130	-373.01202	859.65277	-1403.91687	-221.17543	422.95026	-1104.13416	-593.37598	418.49506	-1226.35657				-175.93668	184.78300	-1364.16467	
75	0.740	-476.42093	1341.65759	-978.69598							-557.69543	1390.08154	-1095.55676	-233.37572	1236.45410	-1181.95557	-615.56909	1228.05542	-1231.90234							-146.65984	916.74670	-1205.35095	-691.07617	963.75067	-1312.76147	-134.39534	730.33838	-1086.35388	-749.37372	724.45532	-1263.62439	-368.96246	842.95245	-1061.60254	-566.57764	845.97095	-1123.25488	-375.72812	861.34406	-1397.73328	-229.60860	425.90164	-1087.94568	-595.63171	418.01794	-1227.17480				-181.61722	185.74876	-1351.39221	
76	0.750	-481.10837	1342.39453	-971.85883							-562.29901	1391.10413	-1090.04333	-237.38054	1237.20837	-1176.01929	-619.71295	1229.25769	-1226.41357							-151.65045	917.10107	-1198.25146	-696.38824	965.08746	-1305.65710	-140.62790	731.29523	-1078.06677	-755.09766	724.56134	-1250.67407	-372.62448	843.95337	-1056.44824	-569.53589	845.86688	-1119.67017	-378.36356	863.31952	-1392.12830	-235.89368	430.25015	-1073.97241	-598.30963	417.60809	-1221.49561				-191.43054	185.27396	-1331.76721	
77	0.760	-484.83020	1342.40784	-966.10681							-566.11359	1391.41296	-1083.02271	-240.98833	1237.73340	-1169.41345	-623.62836	1230.75415	-1220.42444							-156.32271	917.85443	-1191.95361	-701.50208	966.47662	-1298.34827	-146.66417	732.39771	-1069.95544	-760.15924	726.61194	-1240.86414	-376.42627	845.21210	-1050.08215	-573.89911	845.47540	-1113.52368	-380.95313	864.54108	-1385.68542	-244.08818	434.07358	-1058.99817	-600.40143	414.37085	-1225.38293				-199.97017	184.33788	-1313.10425	
78	0.770	-488.75546	1342.72058	-961.15472							-570.11127	1391.75598	-1076.70703	-245.17578	1239.21228	-1164.61035	-627.68323	1231.61450	-1214.61523							-160.97653	919.00140	-1186.17578	-706.41992	966.59845	-1288.30298	-152.53017	734.17169	-1061.74023	-764.80292	728.64240	-1230.89575	-382.03165	845.64636	-1045.83154	-577.54016	848.31934	-1102.63269	-383.40094	865.76105	-1379.64001	-252.31711	438.30524	-1044.95520	-604.59705	414.42303	-1223.86096				-209.45126	179.94006	-1292.44519	
79	0.780	-492.99075	1342.52234	-953.35767							-573.64746	1392.28284	-1070.25647	-249.70532	1240.92383	-1160.20288	-631.74084	1233.36292	-1210.47656							-165.63950	919.91687	-1179.98132	-711.15411	966.78528	-1278.42786	-158.65053	735.73187	-1053.30200	-769.65033	730.04462	-1219.91089	-385.75107	845.91998	-1041.98022	-579.75500	849.86273	-1100.86035	-385.77298	866.90729	-1373.65002	-259.21432	443.69806	-1032.71985	-606.57819	414.22812	-1222.65845				-217.44305	175.30730	-1273.57678	
80	0.790	-497.25128	1342.70557	-948.20422							-577.89459	1393.32837	-1064.05994	-253.27803	1241.29419	-1152.65857	-635.36127	1234.27710	-1203.79468							-169.93144	920.67590	-1173.22083	-715.66754	967.67596	-1269.98914	-163.86218	737.86926	-1044.73157	-774.79352	730.73309	-1207.50671	-388.63562	848.45593	-1034.05005	-582.68994	850.31903	-1096.56299	-388.12195	867.99200	-1367.65710	-267.58978	447.95703	-1020.21893	-607.83948	415.73199	-1216.67188				-226.36981	171.13980	-1252.89514	
81	0.800	-500.93570	1342.32996	-940.85181							-581.53271	1394.38171	-1057.54602	-257.75256	1242.30396	-1146.45654	-639.54590	1234.92883	-1197.20740							-174.65436	922.24817	-1168.21655	-719.94080	969.07532	-1262.73169	-169.61850	739.25177	-1037.04871	-779.08643	732.58002	-1197.52783	-392.95874	850.53723	-1027.11365	-586.10760	851.76434	-1090.30957	-390.59180	868.04852	-1360.95203	-275.98273	451.07462	-1007.87128	-608.14380	414.03888	-1216.17883				-237.81149	166.29860	-1230.85718	
82	0.810	-504.67368	1342.62805	-934.38281							-585.32428	1394.13562	-1050.74585	-261.82211	1243.91150	-1142.22107	-643.67822	1235.86035	-1191.31531							-178.88303	922.59912	-1160.89685	-724.24219	969.78107	-1254.54736	-174.17894	740.88818	-1029.43274	-783.04718	734.53076	-1187.79333	-398.18991	851.63458	-1021.70483	-589.31683	850.58990	-1088.85913	-392.63379	869.02167	-1354.80688	-283.71964	455.34885	-997.36597	-609.10315	413.03424	-1216.53296				-246.54913	159.66118	-1207.33984	
83	0.820	-507.62759	1342.76184	-928.48431							-589.35809	1395.21863	-1044.24609	-265.83563	1244.80420	-1136.26355	-647.73938	1236.92578	-1185.09106							-182.77504	923.87427	-1155.18359	-728.68896	969.36102	-1244.41821	-179.59573	742.32147	-1021.17932	-787.53186	735.25861	-1176.41077	-402.09705	852.49329	-1015.10370	-592.92444	849.88959	-1086.01575	-394.72989	869.14252	-1348.07434	-291.67007	458.33127	-987.37518	-611.23596	413.00739	-1211.20544				-256.14221	151.02852	-1184.39258	
84	0.830	-511.32144	1342.63928	-922.24792							-592.72150	1395.55469	-1037.71484	-269.51950	1245.08276	-1129.21570	-651.42517	1237.26929	-1178.61792							-187.06128	924.86444	-1149.68408	-733.08368	969.67908	-1236.38208	-183.97241	743.75659	-1013.39294	-792.10071	735.60156	-1164.65308	-406.24918	853.27563	-1010.90338	-597.33643	851.20685	-1080.82349	-396.66180	869.58740	-1341.47083	-300.31564	460.44006	-976.59735	-612.18567	411.62326	-1209.90723				-266.23007	142.44275	-1160.57068	
85	0.840	-515.54333	1342.66174	-915.33655				-371.44357	1412.44556	-1046.96863	-596.18146	1395.85376	-1030.28381	-274.07950	1246.63538	-1125.41699	-656.07135	1237.54614	-1172.04773							-190.97629	925.58051	-1143.63403	-737.18707	970.78229	-1230.27893	-188.79988	744.54492	-1006.16858	-795.74432	737.37677	-1155.74634	-411.58676	855.38043	-1005.13525	-601.17841	855.52484	-1064.78333	-398.64423	869.59979	-1333.85950	-306.50708	464.00064	-967.12488	-613.27240	412.45734	-1206.59766				-276.69937	133.90741	-1135.59607	
86	0.850	-518.16278	1341.38794	-908.98694				-374.70755	1412.16833	-1040.46362	-599.51190	1395.71338	-1023.84210	-277.68149	1246.10266	-1117.05273	-659.70795	1237.92126	-1165.27087							-194.68073	925.19495	-1135.68188	-741.20758	971.28064	-1223.26611	-192.64040	745.99750	-999.32721	-799.47882	737.41913	-1144.09363	-415.91483	856.50061	-996.17145	-606.86505	857.61932	-1059.06836	-400.55881	870.18268	-1326.80688	-313.92648	466.12195	-958.71375	-615.41852	412.52942	-1199.78162				-286.87912	126.22486	-1110.18225	
87	0.860	-521.51257	1341.92456	-902.27405				-378.10834	1411.50708	-1032.13232	-602.89954	1396.53967	-1016.99707	-281.70889	1246.70776	-1111.82642	-663.44470	1238.14221	-1159.00354							-198.79428	926.17139	-1129.70129	-746.00299	970.11127	-1213.30383	-196.64668	747.01343	-990.54480	-803.25360	736.74249	-1131.53577	-420.39410	855.55847	-989.88837	-608.35535	856.59290	-1052.56238	-402.62714	870.13171	-1319.37329	-321.81668	467.19418	-950.61713	-615.91156	411.52106	-1201.78015				-296.32800	118.74063	-1086.19690	
88	0.870	-524.12341	1341.61328	-895.33337				-381.43665	1411.47339	-1026.70911	-606.28094	1396.38440	-1009.51001	-285.81216	1246.37439	-1104.47339	-667.67188	1237.91614	-1151.88281							-202.19499	925.79419	-1122.50989	-750.31329	970.24603	-1206.27148	-202.15587	747.25995	-982.00928	-807.76428	736.54663	-1119.33032	-424.60388	856.23291	-983.63458	-611.46387	856.33960	-1047.77197	-404.70700	870.95929	-1312.80237	-329.73483	467.79065	-942.09259							-307.23029	109.98795	-1059.14014	
89	0.880	-527.00433	1341.32068	-889.20422				-384.83218	1410.53918	-1018.18494	-609.87445	1396.17114	-1001.91492	-289.58441	1246.55811	-1099.01648	-671.67065	1237.39246	-1144.78918							-205.78493	925.83496	-1116.02209	-754.23907	970.45758	-1199.54736	-204.36314	747.81445	-975.07733	-811.43536	735.99329	-1108.49207	-427.21603	858.02588	-975.59888	-615.86151	856.70313	-1040.35046	-406.89035	870.90076	-1305.09216	-336.55066	469.14133	-935.01233							-319.03708	102.52859	-1032.77295	
90	0.890	-529.82660	1341.57727	-881.24805				-387.72653	1410.88794	-1014.52155	-612.91602	1396.35913	-994.65680	-293.52148	1245.52026	-1090.59814	-675.22253	1236.93005	-1137.85339							-209.92461	925.31519	-1108.64526	-758.88202	968.42267	-1188.78455	-207.81255	748.11176	-967.55963	-815.17578	736.43958	-1098.99841	-431.78107	857.75153	-966.83130	-619.26843	855.36401	-1033.70032	-408.96811	871.22198	-1297.52429	-344.87683	468.08038	-927.59955	-617.49884	412.58609	-1198.12024				-330.19019	96.04392	-1006.84900	
91	0.900	-533.60052	1341.30774	-874.30902				-391.08472	1410.80505	-1009.36365	-615.40192	1395.57813	-986.76794	-297.21115	1245.43896	-1085.08398	-679.34344	1236.08972	-1130.96497							-212.90955	925.19995	-1103.44043	-762.99878	968.66980	-1183.07739	-212.49327	747.95844	-960.09814	-818.46765	735.39276	-1087.52942	-434.89481	857.33344	-960.41254	-622.46350	854.06122	-1027.37341	-411.33929	871.20483	-1290.83044	-351.99127	468.25470	-920.64935							-342.03595	90.97801	-981.12512	
92	0.910	-535.96338	1340.98425	-866.78345				-394.59045	1410.72644	-1005.09564	-619.03125	1396.34534	-979.40009	-301.12759	1245.12830	-1078.96887	-683.29315	1234.97070	-1123.44031							-216.69185	924.34174	-1096.44592	-767.21167	965.77655	-1171.92480	-215.81573	747.76300	-951.49396	-820.58838	736.23529	-1080.91394	-439.06686	857.07428	-952.17529	-626.39429	854.21533	-1021.42188	-413.59116	871.16626	-1283.61084	-359.86243	467.18304	-913.26685							-353.13892	86.31149	-955.08521	
